# xmcd CD database file
#
# Track frame offsets:
#	225
#	31255
#	61329
#	87575
#	120572
#	146818
#	164067
#	192490
#	211312
#	242734
#	272805
#	294998
#
# Disc length: 4220 seconds
#
# Revision: 0
# Processed by: cddbd v1.5.1PL0 Copyright (c) Steve Scherf et al.
# Submitted via: CDex 1.51
#
DISCID=bb10790c
DTITLE=Ballantine Shaw Band - Urnioc Pixl
DYEAR=1998
DGENRE=Jazz
TTITLE0=The Dream Thief
TTITLE1=Another Winter
TTITLE2=Hadamo
TTITLE3=Look Inside Yourself
TTITLE4=Song For Sheba
TTITLE5=Night Dance
TTITLE6=Dreamland
TTITLE7=Gonforit
TTITLE8=CXP30
TTITLE9=Stephanie's Song
TTITLE10=The Noddy
TTITLE11=Urnioc Pixl
EXTD=YEAR: 1998
EXTT0=
EXTT1=
EXTT2=
EXTT3=
EXTT4=
EXTT5=
EXTT6=
EXTT7=
EXTT8=
EXTT9=
EXTT10=
EXTT11=
PLAYORDER=
